<?xml version="1.0" encoding="UTF-8" standalone="no"?>
<svg xmlns:dc="http://purl.org/dc/elements/1.1/" xmlns:cc="http://creativecommons.org/ns#" xmlns:rdf="http://www.w3.org/1999/02/22-rdf-syntax-ns#" xmlns:svg="http://www.w3.org/2000/svg" xmlns="http://www.w3.org/2000/svg" xmlns:sodipodi="http://sodipodi.sourceforge.net/DTD/sodipodi-0.dtd" xmlns:inkscape="http://www.inkscape.org/namespaces/inkscape" style="enable-background:new" sodipodi:docname="identity-icons-brand.svg" inkscape:version="1.0 (4035a4fb49, 2020-05-01)" inkscape:export-ydpi="77.075264" inkscape:export-xdpi="77.075264" inkscape:export-filename="C:\Users\sotaro\Desktop\Serene\flast\v2\v2_1024.png" id="svg8" version="1.1" viewBox="0 0 341.21436 341.21435" height="16" width="16">
  <sodipodi:namedview inkscape:document-rotation="0" fit-margin-bottom="30" fit-margin-right="30" fit-margin-left="30" fit-margin-top="30" inkscape:snap-smooth-nodes="true" inkscape:snap-intersection-paths="true" inkscape:snap-global="true" inkscape:pagecheckerboard="true" inkscape:window-maximized="1" inkscape:window-y="0" inkscape:window-x="0" inkscape:window-height="835" inkscape:window-width="1600" showgrid="false" inkscape:current-layer="svg8" inkscape:document-units="mm" inkscape:cy="14.09847" inkscape:cx="32.372795" inkscape:zoom="7.919596" inkscape:pageshadow="2" inkscape:pageopacity="0.0" borderopacity="1.0" bordercolor="#666666" pagecolor="#ffffff" id="base"/>
  <defs id="defs2">
    <filter style="color-interpolation-filters:sRGB" inkscape:label="Drop Shadow" id="filter3876">
      <feFlood flood-opacity="0.498039" flood-color="rgb(0,0,0)" result="flood" id="feFlood3866"/>
      <feComposite in="flood" in2="SourceGraphic" operator="in" result="composite1" id="feComposite3868"/>
      <feGaussianBlur in="composite1" stdDeviation="10" result="blur" id="feGaussianBlur3870"/>
      <feOffset dx="0" dy="0" result="offset" id="feOffset3872"/>
      <feComposite in="SourceGraphic" in2="offset" operator="over" result="composite2" id="feComposite3874"/>
    </filter>
    <clipPath id="clipPath4014" clipPathUnits="userSpaceOnUse">
      <circle style="opacity:1;fill:#ffffff;fill-opacity:1;stroke:none;stroke-width:1.29999995;stroke-linecap:butt;stroke-linejoin:bevel;stroke-miterlimit:4;stroke-dasharray:none;stroke-opacity:0.87234042" id="circle4016" cx="94.063423" cy="187.42929" r="65.293945"/>
    </clipPath>
    <clipPath clipPathUnits="userSpaceOnUse" id="clipPath3925">
      <path style="opacity:1;fill:#ffffff;fill-opacity:1;stroke:none;stroke-width:46.76499939;stroke-linecap:butt;stroke-linejoin:bevel;stroke-miterlimit:4;stroke-dasharray:none;stroke-opacity:1;paint-order:normal" id="path3927" sodipodi:type="arc" sodipodi:cx="148.92264" sodipodi:cy="148.05356" sodipodi:rx="140.60715" sodipodi:ry="140.60715" sodipodi:start="1.5741125" sodipodi:end="1.5741072" d="M 148.45636,288.65993 A 140.60715,140.60715 0 0 1 8.3162632,147.58747 140.60715,140.60715 0 0 1 149.38854,7.447183 140.60715,140.60715 0 0 1 289.52901,148.51928 140.60715,140.60715 0 0 1 148.45711,288.65993 l 0.46553,-140.60637 z"/>
    </clipPath>
    <filter id="filter4537" inkscape:label="Drop Shadow" style="color-interpolation-filters:sRGB;">
      <feFlood id="feFlood4527" result="flood" flood-color="rgb(0,0,0)" flood-opacity="0.498039"/>
      <feComposite id="feComposite4529" result="composite1" operator="in" in2="SourceGraphic" in="flood"/>
      <feGaussianBlur id="feGaussianBlur4531" result="blur" stdDeviation="7.5" in="composite1"/>
      <feOffset id="feOffset4533" result="offset" dy="0" dx="0"/>
      <feComposite id="feComposite4535" result="composite2" operator="over" in2="offset" in="SourceGraphic"/>
    </filter>
  </defs>
  <metadata id="metadata5">
    <rdf:RDF>
      <cc:Work rdf:about="">
        <dc:format>image/svg+xml</dc:format>
        <dc:type rdf:resource="http://purl.org/dc/dcmitype/StillImage"/>
        <dc:title/>
      </cc:Work>
    </rdf:RDF>
  </metadata>
  <path transform="matrix(1.1794965,0,0,1.1794965,-31.604921,-30.720456)" inkscape:connector-curvature="0" id="path6262" d="M 171.0733,30.000773 A 140.60713,140.60713 0 0 0 30.000773,170.14105 140.60713,140.60713 0 0 0 170.14105,311.21357 l 0.39378,-118.84545 -25.31422,11.04119 -89.126341,-68.36896 146.509921,43.34051 -32.06885,13.98726 -0.39377,118.84545 A 140.60713,140.60713 0 0 0 311.21358,171.07278 140.60713,140.60713 0 0 0 171.0733,30.000773 Z M 56.034325,134.99798 l 196.933725,3.12074 -33.03469,32.28433 z m 199.678245,3.02152 10.4221,0.15761 -35.41282,34.60874 -5.07669,60.24284 -8.30337,-6.19446 4.71289,-55.92061 z m 13.02764,0.19689 5.21104,0.0791 -36.7285,35.89497 -5.33508,63.30725 -4.16202,-2.97967 5.16351,-61.26396 z m 7.81708,0.11834 2.60554,0.0398 -37.60598,36.75228 -5.50768,65.35001 -2.08049,-1.48983 5.42137,-64.32837 z m -71.61423,44.89596 10.38903,42.43152 -40.42492,-28.99978 z" style="display:inline;opacity:1;fill:#ffffff;fill-opacity:1;stroke:none;stroke-width:46.765;stroke-linecap:butt;stroke-linejoin:bevel;stroke-miterlimit:4;stroke-dasharray:none;stroke-opacity:1;paint-order:normal;filter:url(#filter4537)"/>
</svg>